# xmcd
#
# Track frame offsets:
#	150
#	5321
#	18767
#	29826
#	47802
#	62500
#	73564
#	85086
#	103955
#	112348
#	123046
#	131333
#	143403
#	152464
#	160291
#	172850
#	188498
#	196122
#	206183
#	219804
#
# Disc length: 2973 seconds
#
# Revision: 0
# Processed by: cddbd v1.5.2PL0 Copyright (c) Steve Scherf et al.
# Submitted via: dBpowerAMP V4.0
#
DISCID=020b9b14
DTITLE=Merle Haggard - Live
DYEAR=2007
DGENRE=Country
TTITLE0=Water Baby Boogie - The Strangers
TTITLE1=Swinging Doors - Merle Haggard
TTITLE2=For Ever And Ever - Bonnie Owens and Merle Haggard
TTITLE3=I Threw Away The Rose - Merle Haggard
TTITLE4=The Fugitive - Merle Haggard
TTITLE5=Caravan - Roy Nichols
TTITLE6=Stop The World - Bonnie Owens
TTITLE7=You Don't Have Very Far To Go - Sing A Sad Song - Merle Haggard
TTITLE8=San Antonio Rose - The Strangers
TTITLE9=Gone Crazy - Merle Haggard
TTITLE10=Foggy Mountain Top - Bonnie Owens
TTITLE11=Bottle Let Me Down - Merle Haggard
TTITLE12=Cowboy Seetheart - Bonnie Owens
TTITLE13=Yakety Axe - Roy Nichols
TTITLE14=Old What's Her Name - Fuzzy Owens
TTITLE15=Almost Persuaded - Merle Haggard
TTITLE16=Sugar Foot Rag - Roy Nichols
TTITLE17=The Longer You Wait - Merle Haggard
TTITLE18=All Of Me Belongs To You - Merle Haggard
TTITLE19=Closing - Merle Haggard
EXTD=
EXTT0=
EXTT1=
EXTT2=
EXTT3=
EXTT4=
EXTT5=
EXTT6=
EXTT7=
EXTT8=
EXTT9=
EXTT10=
EXTT11=
EXTT12=
EXTT13=
EXTT14=
EXTT15=
EXTT16=
EXTT17=
EXTT18=
EXTT19=
PLAYORDER=
